Coordinates
version=1
nRows=14
nColumns=42
inDegrees=yes

Units are S.I. units (second, meters, Newtons, ...)
If the header above contains a line with 'inDegrees', this indicates whether rotational values are in degrees (yes) or radians (no).

endheader
time	pelvis_tilt	pelvis_list	pelvis_rotation	pelvis_tx	pelvis_ty	pelvis_tz	hip_flexion_r	hip_adduction_r	hip_rotation_r	knee_angle_r	knee_adduction_r	knee_angle_r_beta	ankle_angle_r	subtalar_angle_r	mtp_angle_r	hip_flexion_l	hip_adduction_l	hip_rotation_l	knee_angle_l	knee_adduction_l	knee_angle_l_beta	ankle_angle_l	subtalar_angle_l	mtp_angle_l	lumbar_extension	lumbar_bending	lumbar_rotation	arm_flex_r	arm_add_r	arm_rot_r	elbow_flex_r	pro_sup_r	wrist_flex_r	wrist_dev_r	arm_flex_l	arm_add_l	arm_rot_l	elbow_flex_l	pro_sup_l	wrist_flex_l	wrist_dev_l
      1.11000000	      0.63114148	     -5.57486607	      3.40117262	      0.54228385	      0.97297022	     -0.23007661	      9.92266653	      8.04230437	     -6.22982198	     14.75067304	     -0.29419342	      0.25744781	      2.63389623	     -3.75668573	     -7.55304234	      4.07943412	     -8.83549661	    -10.65291338	     56.34557358	     -5.72702048	      0.98341578	     -9.97024534	    -17.45516046	     -7.55304234	    -12.25268008	      8.33586286	      3.72923446	     -8.99346510	    -10.52550928	     -8.40997965	     30.86048956	     90.00000001	      0.00000000	      0.00000000	      7.35239479	    -10.39320395	      9.62373609	     48.68180090	     90.00000001	      0.00000000	      0.00000000
      1.12000000	      0.52527559	     -5.18897862	      3.45939197	      0.55622148	      0.97501877	     -0.22948825	      8.53814615	      7.69718380	     -6.04282946	     13.71702665	     -0.15804160	      0.23940728	      3.12123648	     -3.23064925	     -7.55205856	      6.15862518	     -8.43044481	    -11.12390049	     57.35464537	     -6.33037170	      1.00102740	     -8.67157064	    -17.39662817	     -7.55205856	    -12.21411582	      7.87165346	      4.02053012	     -8.52072302	    -10.54132590	     -8.15180635	     31.21150494	     90.00000001	      0.00000000	      0.00000000	      6.81114849	    -10.49581931	      9.55118441	     48.59977950	     90.00000001	      0.00000000	      0.00000000
      1.13000000	      0.33534668	     -4.79878996	      3.47451107	      0.56995975	      0.97672610	     -0.22884955	      7.27088300	      7.36983113	     -5.70147264	     12.70430741	     -0.05379814	      0.22173199	      3.55130347	     -2.82968816	     -7.55055860	      8.29023428	     -7.98486309	    -11.38441419	     58.08086089	     -6.69234380	      1.01370225	     -7.29196803	    -17.01180432	     -7.55055860	    -12.10851486	      7.38970305	      4.30283488	     -8.02661248	    -10.63650192	     -7.66104820	     31.62418994	     90.00000001	      0.00000000	      0.00000000	      6.23641548	    -10.62291568	      9.41323077	     48.51439953	     90.00000001	      0.00000000	      0.00000000
      1.14000000	      0.24825082	     -4.37799378	      3.43398253	      0.58361236	      0.97832016	     -0.22805344	      6.05914471	      7.00793729	     -5.79109517	     11.99230343	     -0.01625860	      0.20930518	      3.83654101	     -2.48653048	     -7.54996895	     10.22586596	     -7.51387390	    -11.49014864	     58.45765001	     -6.77512872	      1.02027847	     -6.28098619	    -16.76136255	     -7.54996895	    -12.14037790	      6.83925967	      4.73946913	     -7.52521424	    -10.64486098	     -7.47748536	     32.07721447	     90.00000001	      0.00000000	      0.00000000	      5.73070772	    -10.78531929	      9.35680187	     48.38748188	     90.00000001	      0.00000000	      0.00000000
      1.15000000	     -0.03675690	     -3.94314572	      3.46454824	      0.59727252	      0.97948051	     -0.22769206	      4.82819912	      6.56322349	     -5.12428745	     10.83494200	      0.23095349	      0.18910541	      4.19765903	     -2.37095437	     -7.54766494	     12.25943692	     -6.87853828	    -11.18072761	     58.41674771	     -6.62293520	      1.01956459	     -4.79474551	    -15.78785660	     -7.54766494	    -11.92561971	      6.32977733	      4.88304759	     -7.02770007	    -10.88503709	     -6.52594953	     32.65658519	     90.00000001	      0.00000000	      0.00000000	      5.01529748	    -10.94381325	      9.12716320	     48.29797294	     90.00000001	      0.00000000	      0.00000000
      1.16000000	     -0.21292098	     -3.54943982	      3.40202405	      0.61095428	      0.98044244	     -0.22706628	      3.58028016	      6.22119832	     -4.56618979	      9.85462786	      0.35990607	      0.17199570	      4.36621862	     -2.46422650	     -7.54438351	     14.09007790	     -6.33916906	    -10.88285458	     58.07490283	     -6.31440634	      1.01359827	     -3.74594007	    -14.82970096	     -7.54438351	    -11.84755205	      5.83429833	      5.18006390	     -6.52572915	    -11.05176469	     -5.96809267	     33.31065698	     90.00000001	      0.00000000	      0.00000000	      4.34179970	    -11.13892235	      8.96901263	     48.15675266	     90.00000001	      0.00000000	      0.00000000
      1.17000000	     -0.49607568	     -3.18065162	      3.24927862	      0.62459865	      0.98090477	     -0.22618789	      2.65319305	      5.93495289	     -4.50535667	      9.23296879	      0.32273266	      0.16114571	      4.78105777	     -2.10321239	     -7.54379745	     15.94810996	     -5.84030532	    -10.49755128	     57.44661661	     -5.82728555	      1.00263260	     -3.04293822	    -14.16597561	     -7.54379745	    -11.64662429	      5.31967510	      5.62133950	     -6.05352735	    -11.11871757	     -5.76605678	     33.94607762	     90.00000001	      0.00000000	      0.00000000	      3.70043408	    -11.36317337	      8.87510439	     47.96083893	     90.00000001	      0.00000000	      0.00000000
      1.18000000	     -0.78048627	     -2.78059670	      3.14615346	      0.63794040	      0.98108369	     -0.22564670	      1.71402645	      5.52409178	     -4.06408638	      8.57734906	      0.47390722	      0.14970298	      5.29513051	     -1.66770040	     -7.54307360	     17.72700928	     -5.23284614	     -9.72979636	     56.53244066	     -5.08199964	      0.98667722	     -2.16445038	    -13.17849344	     -7.54307360	    -11.49494345	      4.80859330	      5.91212480	     -5.51117999	    -11.31618628	     -5.28620029	     34.73598314	     90.00000001	      0.00000000	      0.00000000	      3.05639505	    -11.55724949	      8.68210165	     47.74727013	     90.00000001	      0.00000000	      0.00000000
      1.19000000	     -0.91385915	     -2.46507289	      2.99130027	      0.65151636	      0.98109089	     -0.22490201	      0.66566888	      5.23881749	     -3.72765276	      8.02961423	      0.58522482	      0.14014321	      5.75096098	     -1.48745539	     -7.54218414	     19.19587758	     -4.78541249	     -8.99234830	     55.25996660	     -4.25277873	      0.96446836	     -1.33805449	    -12.16694404	     -7.54218414	    -11.48028615	      4.37290664	      6.23597664	     -4.96526449	    -11.56441944	     -4.55184430	     35.53599282	     90.00000001	      0.00000000	      0.00000000	      2.38511361	    -11.75596501	      8.35831631	     47.48844718	     90.00000001	      0.00000000	      0.00000000
      1.20000000	     -0.91401601	     -2.21399851	      2.79494456	      0.66530248	      0.98094526	     -0.22413116	     -0.52336161	      5.04980189	     -3.32994460	      7.49314382	      0.65405082	      0.13078003	      6.12545969	     -1.52455196	     -7.54100113	     20.37423773	     -4.42900215	     -8.32067281	     53.62909968	     -3.45054907	      0.93600436	     -0.65177848	    -11.29084883	     -7.54100113	    -11.58782714	      4.00701233	      6.58945182	     -4.42692937	    -11.87182245	     -3.67266540	     36.36503119	     90.00000001	      0.00000000	      0.00000000	      1.70741906	    -11.92083392	      7.93110589	     47.20550437	     90.00000001	      0.00000000	      0.00000000
      1.21000000	     -0.75683268	     -1.96742620	      2.52400681	      0.67912375	      0.98073985	     -0.22330615	     -1.93291464	      4.88967071	     -2.60395824	      6.84978599	      0.70799648	      0.11955132	      6.23880922	     -2.02607412	     -7.53873959	     21.24018576	     -4.09950718	     -7.73078724	     51.66345591	     -2.68660723	      0.90169741	     -0.35504057	    -10.71079002	     -7.53873959	    -11.88514036	      3.64000916	      6.97120290	     -3.81583494	    -12.21192024	     -2.77457572	     37.23200956	     90.00000001	      0.00000000	      0.00000000	      1.02655464	    -12.08374419	      7.42641854	     46.91337452	     90.00000001	      0.00000000	      0.00000000
      1.22000000	     -0.97425650	     -1.86448585	      2.26603595	      0.69275632	      0.97957154	     -0.22227648	     -2.71728177	      4.89509514	     -2.22482852	      6.59744803	      0.67885950	      0.11514719	      6.80422218	     -1.96232808	     -7.53791280	     22.51412657	     -3.96879724	     -7.06372063	     49.61023607	     -1.85935911	      0.86586196	      0.07878892	    -10.28850201	     -7.53791280	    -11.74819827	      3.37958546	      7.38736545	     -3.26906052	    -12.41387643	     -2.39274179	     38.13493430	     90.00000001	      0.00000000	      0.00000000	      0.42930918	    -12.28723422	      7.12516858	     46.40883793	     90.00000001	      0.00000000	      0.00000000
      1.23000000	     -1.04441583	     -1.78008361	      1.98817382	      0.70649240	      0.97833724	     -0.22130935	     -3.64896984	      4.91564545	     -1.86036194	      6.37295673	      0.65261594	      0.11122908	      7.32929507	     -1.98582289	     -7.53710532	     23.46529676	     -3.86227970	     -6.43497560	     47.21232600	     -1.08654314	      0.82401054	      0.34536752	    -10.03550517	     -7.53710532	    -11.77136385	      3.15614675	      7.77367383	     -2.68817563	    -12.69367652	     -1.79226758	     39.04001529	     90.00000001	      0.00000000	      0.00000000	     -0.17162181	    -12.44723932	      6.67199650	     45.85084214	     90.00000001	      0.00000000	      0.00000000
      1.24000000	     -0.72358199	     -1.56319748	      1.70494977	      0.72052802	      0.97744431	     -0.22058821	     -5.14965282	      4.76089303	     -1.21557061	      5.91170201	      0.72377121	      0.10317866	      7.53432803	     -2.64676949	     -7.53509106	     23.75186427	     -3.57864294	     -5.97859442	     44.34928845	     -0.48000550	      0.77404110	      0.13340021	    -10.49724265	     -7.53509106	    -12.21771270	      2.80819766	      8.09210945	     -2.00165402	    -13.03910481	     -0.92527924	     39.86821103	     90.00000001	      0.00000000	      0.00000000	     -0.76889167	    -12.53732616	      5.97633170	     45.34316973	     90.00000001	      0.00000000	      0.00000000
